<svg width="162" height="65" viewBox="0 0 162 65" fill="none" xmlns="http://www.w3.org/2000/svg">
  <path d="M12.4338 49.7436C18.3817 59.6984 30.6047 64.0207 43.0886 61.7486C27.5753 67.3772 11.0865 63.3061 3.76009 51.0403C-4.77926 36.7458 2.39722 16.7349 19.7894 6.34596C31.806 -0.820786 45.5457 -1.53142 55.7108 3.42163C46.9494 0.904219 36.4203 2.20673 27.0671 7.7945C10.9113 17.4456 4.35975 36.2279 12.4338 49.7436Z" fill="black"/>
  <path d="M52.4048 29.2676C49.1379 32.4139 41.9575 37.2501 45.8358 59.4454C45.8459 59.5 45.8441 59.5562 45.8307 59.61C45.8173 59.6639 45.7925 59.7143 45.7581 59.7578C45.7236 59.8013 45.6802 59.837 45.6308 59.8623C45.5814 59.8877 45.5272 59.9022 45.4717 59.9049C45.0973 59.9219 44.7222 59.9174 44.3483 59.8913C44.2593 59.885 44.1751 59.8483 44.1099 59.7873C44.0447 59.7264 44.0024 59.6448 43.9901 59.5564C43.6922 57.4732 41.8484 45.5013 38.523 45.5013C35.2541 45.5013 32.6043 57.15 32.0981 59.5039C32.0778 59.601 32.0212 59.6868 31.9397 59.7436C31.8583 59.8005 31.7582 59.824 31.66 59.8095C31.2888 59.755 30.9202 59.694 30.5541 59.6265C30.4991 59.616 30.4469 59.5937 30.4013 59.5611C30.3557 59.5286 30.3176 59.4866 30.2897 59.4379C30.2617 59.3893 30.2447 59.3353 30.2396 59.2794C30.2345 59.2236 30.2415 59.1673 30.2602 59.1145C31.2687 56.2388 34.23 46.2003 29.6079 38.3502C24.1564 29.0885 13.4287 25.9811 13.4287 25.9811V25.9656C13.5585 25.6372 13.6948 25.3094 13.8376 24.9824C13.9176 24.7975 14.0661 24.6507 14.252 24.5731C14.4379 24.4954 14.6466 24.4927 14.8344 24.5657C18.4285 25.9714 28.3677 29.4136 38.3439 28.849C50.5299 28.1617 58.528 19.8794 60.4867 12.0156C60.5044 11.9454 60.5414 11.8815 60.5935 11.8311C60.6456 11.7807 60.7107 11.7459 60.7816 11.7305C60.8524 11.7152 60.926 11.7199 60.9943 11.7441C61.0626 11.7683 61.1228 11.8111 61.1681 11.8676C62.126 13.1176 63.0683 17.4359 52.4224 29.2481L52.4048 29.2676Z" fill="black"/>
  <path d="M38.4042 25.8869C41.1956 25.8869 43.4585 23.624 43.4585 20.8326C43.4585 18.0412 41.1956 15.7783 38.4042 15.7783C35.6127 15.7783 33.3499 18.0412 33.3499 20.8326C33.3499 23.624 35.6127 25.8869 38.4042 25.8869Z" fill="black"/>
  <path d="M85.0553 14.6896C85.0553 16.0135 84.577 17.0519 83.6204 17.8047C82.6638 18.5576 81.3444 18.932 79.6622 18.9281C77.9748 18.9281 76.5977 18.6685 75.5308 18.1493V15.85C76.2241 16.1746 76.9489 16.4271 77.6938 16.6035C78.3913 16.7782 79.1068 16.8703 79.8258 16.878C80.7876 16.878 81.4982 16.695 81.9577 16.3289C82.1803 16.1545 82.3585 15.9299 82.4776 15.6734C82.5967 15.4168 82.6534 15.1358 82.643 14.8531C82.6466 14.5859 82.592 14.3211 82.4831 14.077C82.3742 13.8329 82.2135 13.6155 82.0122 13.4397C81.5916 13.0503 80.7233 12.5921 79.4072 12.0651C78.0495 11.5161 77.0929 10.8885 76.5373 10.1824C75.9764 9.4542 75.6841 8.55463 75.7099 7.63578C75.7099 6.39621 76.1505 5.42273 77.0319 4.71534C77.9132 4.00794 79.095 3.64906 80.5773 3.63867C82.0453 3.6487 83.4948 3.96778 84.8314 4.57516L84.0526 6.55911C82.7287 6.00487 81.5482 5.72711 80.5111 5.72581C79.7245 5.72581 79.1274 5.89714 78.7199 6.23981C78.5205 6.40494 78.3618 6.61377 78.2561 6.85012C78.1504 7.08646 78.1006 7.34397 78.1105 7.60268C78.0999 7.949 78.1841 8.29164 78.3538 8.59368C78.5593 8.91093 78.8343 9.17726 79.1579 9.37246C79.8015 9.75231 80.4755 10.0779 81.173 10.3459C82.2659 10.8015 83.0661 11.226 83.5736 11.6192C84.0466 11.9695 84.4302 12.4264 84.6931 12.9529C84.9424 13.4974 85.0662 14.0909 85.0553 14.6896Z" fill="black"/>
  <path d="M95.6174 18.7319L95.2825 17.2581H95.1599C94.8118 17.7935 94.3199 18.2199 93.7405 18.4885C93.083 18.7962 92.3637 18.9494 91.6378 18.9363C90.275 18.9363 89.258 18.5969 88.587 17.9181C87.9159 17.2392 87.5823 16.2126 87.5862 14.838V7.47461H89.9985V14.4136C89.9985 15.2767 90.175 15.9257 90.5281 16.3605C90.8811 16.7953 91.4334 17.0108 92.1849 17.0069C93.1896 17.0069 93.9275 16.7064 94.3986 16.1055C94.8698 15.5045 95.1028 14.4979 95.0976 13.0857V7.47461H97.5001V18.7319H95.6174Z" fill="black"/>
  <path d="M106.618 18.9279C105.19 18.9279 104.087 18.4159 103.308 17.3918H103.162C103.257 18.3399 103.304 18.9182 103.304 19.1207V23.7369H100.909V7.47591H102.843C102.897 7.68619 103.009 8.18785 103.178 8.98091H103.3C104.045 7.84259 105.165 7.27278 106.659 7.27148C108.062 7.27148 109.155 7.78029 109.939 8.7979C110.723 9.81551 111.113 11.2433 111.108 13.0812C111.108 14.9191 110.709 16.3534 109.912 17.384C109.115 18.4146 108.017 18.9292 106.618 18.9279ZM106.034 9.22039C105.084 9.22039 104.39 9.49815 103.953 10.0537C103.515 10.6092 103.296 11.4983 103.296 12.721V13.087C103.296 14.4564 103.514 15.4481 103.949 16.062C104.385 16.6733 105.095 16.981 106.082 16.981C106.462 16.9951 106.839 16.9085 107.175 16.7301C107.511 16.5516 107.794 16.2875 107.994 15.9646C108.442 15.2858 108.666 14.3188 108.666 13.0637C108.666 11.8085 108.444 10.8539 108 10.1997C107.554 9.55072 106.9 9.22623 106.038 9.22623L106.034 9.22039Z" fill="black"/>
  <path d="M119.602 18.9279C118.174 18.9279 117.071 18.4159 116.292 17.3918H116.15C116.245 18.3399 116.292 18.9182 116.292 19.1207V23.7369H113.894V7.47591H115.827C115.881 7.68619 115.993 8.18785 116.162 8.98091H116.284C117.031 7.84259 118.15 7.27278 119.643 7.27148C121.047 7.27148 122.141 7.78029 122.924 8.7979C123.706 9.81551 124.096 11.2433 124.092 13.0812C124.092 14.9191 123.693 16.3534 122.896 17.384C122.099 18.4146 121.001 18.9292 119.602 18.9279ZM119.018 9.22039C118.068 9.22039 117.374 9.49815 116.937 10.0537C116.499 10.6092 116.281 11.4983 116.281 12.721V13.087C116.281 14.4564 116.497 15.4481 116.931 16.062C117.364 16.6759 118.075 16.9823 119.063 16.981C119.443 16.9951 119.82 16.9085 120.155 16.7301C120.491 16.5516 120.774 16.2875 120.975 15.9646C121.422 15.2858 121.646 14.3188 121.646 13.0637C121.646 11.8085 121.424 10.8539 120.98 10.1997C120.537 9.55072 119.884 9.22623 119.022 9.22623L119.018 9.22039Z" fill="black"/>
  <path d="M136.86 13.0861C136.86 14.924 136.388 16.3583 135.445 17.3889C134.501 18.4195 133.189 18.9386 131.508 18.9464C130.531 18.9659 129.567 18.7196 128.72 18.2339C127.907 17.7543 127.258 17.0413 126.857 16.1876C126.404 15.2176 126.181 14.1562 126.206 13.0861C126.206 11.2598 126.674 9.83208 127.61 8.80279C128.546 7.7735 129.865 7.26145 131.568 7.26664C133.196 7.26664 134.485 7.79102 135.435 8.83978C136.385 9.88854 136.86 11.304 136.86 13.0861ZM128.667 13.0861C128.667 15.682 129.627 16.98 131.547 16.98C133.446 16.98 134.395 15.682 134.395 13.0861C134.395 10.5148 133.439 9.22917 131.525 9.22917C130.521 9.22917 129.793 9.56145 129.343 10.226C128.892 10.8906 128.667 11.8439 128.667 13.0861Z" fill="black"/>
  <path d="M145.316 7.27142C145.715 7.26429 146.115 7.29887 146.507 7.37461L146.272 9.60193C145.925 9.51927 145.57 9.4781 145.214 9.47927C144.783 9.46249 144.352 9.53726 143.952 9.69866C143.551 9.86007 143.189 10.1045 142.89 10.4158C142.297 11.0401 141.999 11.8507 141.998 12.8475V18.7332H139.607V7.47585H141.48L141.796 9.4598H141.916C142.265 8.816 142.766 8.26775 143.376 7.8633C143.949 7.47711 144.625 7.271 145.316 7.27142Z" fill="black"/>
  <path d="M152.784 17C153.379 16.9985 153.97 16.906 154.536 16.7255V18.5264C154.207 18.6602 153.864 18.7575 153.514 18.8165C153.089 18.8929 152.657 18.9301 152.225 18.9275C149.959 18.9275 148.826 17.7333 148.826 15.3451V9.28614H147.28V8.22894L148.927 7.35281L149.743 4.97168H151.217V7.47547H154.423V9.28614H151.217V15.31C151.217 15.8863 151.362 16.3121 151.651 16.5872C151.803 16.7271 151.982 16.8355 152.176 16.9063C152.371 16.9772 152.577 17.009 152.784 17Z" fill="black"/>
  <path d="M82.5631 30.6898H88.036V38.1583C87.1952 38.4397 86.3323 38.6501 85.4563 38.7872C84.5721 38.9128 83.68 38.9739 82.787 38.9702C80.5337 38.9702 78.7971 38.3037 77.577 36.9707C76.3569 35.6376 75.7462 33.7556 75.7449 31.3245C75.7449 28.9297 76.4335 27.0554 77.8106 25.7017C79.1877 24.3479 81.0834 23.6697 83.4977 23.6671C85.0159 23.6606 86.5194 23.9654 87.9153 24.5627L87.0606 26.5875C85.9278 26.0496 84.6913 25.7652 83.4373 25.7542C81.8512 25.7542 80.596 26.2527 79.6719 27.2495C78.7477 28.2463 78.2863 29.6092 78.2876 31.3381C78.2876 33.1553 78.7036 34.5376 79.5356 35.4851C80.3676 36.4326 81.563 36.9058 83.1219 36.9045C83.9738 36.8984 84.8226 36.7992 85.6529 36.6085V32.773H82.5631V30.6898Z" fill="black"/>
  <path d="M97.0622 27.2997C97.4618 27.293 97.861 27.3269 98.2538 27.4009L98.0182 29.636C97.6719 29.5533 97.317 29.5122 96.961 29.5133C96.5294 29.4969 96.0992 29.5719 95.6986 29.7332C95.298 29.8946 94.936 30.1388 94.6363 30.4498C94.0432 31.0754 93.7459 31.886 93.7446 32.8816V38.7633H91.3538V27.5099H93.2326L93.548 29.4939H93.6706C94.0179 28.8487 94.5196 28.2995 95.1309 27.8954C95.7012 27.5094 96.3736 27.302 97.0622 27.2997Z" fill="black"/>
  <path d="M110.321 33.1098C110.321 34.949 109.85 36.3839 108.907 37.4145C107.965 38.4451 106.652 38.9643 104.969 38.9721C103.994 38.987 103.033 38.7373 102.188 38.2497C101.377 37.7701 100.728 37.057 100.327 36.2035C99.8754 35.2359 99.6523 34.1774 99.6749 33.1098C99.6749 31.2848 100.143 29.857 101.079 28.8265C102.014 27.7959 103.332 27.2871 105.031 27.3C106.659 27.3 107.948 27.8244 108.898 28.8732C109.848 29.9219 110.322 31.3341 110.321 33.1098ZM102.13 33.1098C102.13 35.7057 103.09 37.0037 105.01 37.0037C106.929 37.0037 107.879 35.7057 107.858 33.1098C107.858 30.5398 106.902 29.2548 104.99 29.2548C103.985 29.2548 103.258 29.5871 102.808 30.2516C102.357 30.9162 102.131 31.8689 102.13 33.1098Z" fill="black"/>
  <path d="M121.006 38.7563L120.671 37.2805H120.548C120.2 37.8168 119.707 38.244 119.127 38.513C118.47 38.8205 117.751 38.9736 117.026 38.9608C115.662 38.9608 114.644 38.6214 113.973 37.9425C113.302 37.2637 112.966 36.2357 112.965 34.8585V27.5029H115.377V34.4419C115.377 35.3044 115.552 35.9488 115.907 36.3888C116.261 36.8289 116.814 37.0333 117.569 37.0333C118.571 37.0333 119.309 36.7328 119.781 36.1318C120.254 35.5309 120.489 34.525 120.488 33.1141V27.5029H122.89V38.7563H121.006Z" fill="black"/>
  <path d="M132.006 38.9621C130.578 38.9621 129.475 38.45 128.696 37.4259H128.554C128.65 38.3747 128.698 38.951 128.696 39.1548V43.7652H126.298V27.5042H128.231C128.285 27.7145 128.397 28.2162 128.566 29.0092H128.688C129.435 27.8696 130.554 27.2998 132.047 27.2998C133.451 27.2998 134.545 27.8086 135.328 28.8262C136.11 29.8438 136.5 31.2716 136.496 33.1095C136.496 34.9488 136.097 36.3837 135.3 37.4142C134.503 38.4448 133.405 38.9608 132.006 38.9621ZM131.422 29.2545C130.472 29.2545 129.778 29.5323 129.341 30.0878C128.903 30.6434 128.686 31.5312 128.688 32.7513V33.1076C128.688 34.4782 128.905 35.4705 129.339 36.0845C129.772 36.6984 130.482 37.0054 131.467 37.0054C131.847 37.0195 132.224 36.933 132.559 36.7545C132.895 36.576 133.178 36.312 133.379 35.9891C133.826 35.3102 134.05 34.3432 134.05 33.0881C134.05 31.833 133.828 30.877 133.385 30.2202C132.941 29.5713 132.288 29.2468 131.426 29.2468L131.422 29.2545Z" fill="black"/>
  <path d="M88.8714 57.7185H85.8906L78.5739 45.8635H78.4922L78.5428 46.5254C78.6388 47.7871 78.6862 48.9403 78.6849 49.9852V57.7185H76.4771V42.8418H79.4286L86.7239 54.6365H86.7862C86.7726 54.4788 86.7453 53.9122 86.7044 52.9309C86.6635 51.9497 86.6421 51.1787 86.6421 50.6374V42.8496H88.8714V57.7185Z" fill="black"/>
  <path d="M97.4593 57.923C95.7097 57.923 94.341 57.4123 93.3532 56.3908C92.3655 55.3693 91.8709 53.9636 91.8696 52.1737C91.8696 50.3357 92.3272 48.8904 93.2422 47.8378C94.1573 46.7851 95.4157 46.2594 97.0174 46.2607C98.5023 46.2607 99.6763 46.715 100.539 47.6236C101.403 48.5322 101.833 49.7737 101.83 51.3481V52.6409H94.3364C94.3689 53.7338 94.6635 54.5736 95.2203 55.1603C95.7772 55.747 96.5611 56.0403 97.5723 56.0403C98.196 56.0429 98.8181 55.9777 99.4277 55.8456C100.063 55.6995 100.682 55.4902 101.275 55.2206V57.1676C100.713 57.4368 100.118 57.6331 99.5056 57.7517C98.8304 57.873 98.1453 57.9304 97.4593 57.923ZM97.0213 48.0734C96.6831 48.058 96.3456 48.1144 96.0308 48.2389C95.716 48.3634 95.4312 48.5531 95.195 48.7957C94.7381 49.2772 94.4649 49.9794 94.3754 50.9023H99.4842C99.4699 49.9716 99.246 49.2675 98.8125 48.7898C98.379 48.3122 97.7819 48.0734 97.0213 48.0734Z" fill="black"/>
  <path d="M108.744 55.9892C109.339 55.988 109.93 55.8954 110.496 55.7147V57.5157C110.167 57.6495 109.824 57.7467 109.474 57.8058C109.046 57.8846 108.612 57.9237 108.177 57.9226C105.911 57.9226 104.778 56.7284 104.778 54.3402V48.2754H103.24V47.2182L104.887 46.3421L105.703 43.9609H107.177V46.4647H110.383V48.2754H107.177V54.2993C107.177 54.8756 107.321 55.3013 107.611 55.5765C107.763 55.7163 107.942 55.8248 108.136 55.8956C108.331 55.9664 108.537 55.9982 108.744 55.9892Z" fill="black"/>
  <path d="M121.974 57.7182L120.517 52.4614C120.342 51.9072 120.023 50.6151 119.561 48.585H119.47C119.08 50.4165 118.768 51.7144 118.533 52.479L117.038 57.7085H114.392L111.238 46.4551H113.676L115.111 52C115.435 53.3707 115.665 54.5447 115.802 55.522H115.864C115.933 55.0249 116.036 54.4564 116.174 53.8165C116.314 53.176 116.433 52.697 116.536 52.3777L118.245 46.4551H120.879L122.538 52.3777C122.639 52.7087 122.768 53.2188 122.928 53.9041C123.054 54.4295 123.144 54.9629 123.198 55.5006H123.278C123.45 54.3201 123.688 53.15 123.991 51.9961L125.447 46.4512H127.848L124.672 57.7046L121.974 57.7182Z" fill="black"/>
  <path d="M139.749 52.0725C139.749 53.9104 139.278 55.3446 138.336 56.3752C137.393 57.4058 136.081 57.925 134.397 57.9328C133.42 57.9521 132.457 57.7058 131.609 57.2202C130.797 56.7406 130.149 56.0275 129.748 55.174C129.296 54.207 129.073 53.1492 129.096 52.0822C129.096 50.2559 129.563 48.8282 130.499 47.7989C131.435 46.7696 132.755 46.2575 134.457 46.2627C136.088 46.2627 137.377 46.7871 138.326 47.8359C139.275 48.8846 139.749 50.2968 139.749 52.0725ZM131.558 52.0725C131.558 54.6684 132.518 55.9664 134.438 55.9664C136.358 55.9664 137.307 54.6684 137.286 52.0725C137.286 49.5012 136.33 48.2155 134.419 48.2155C133.414 48.2155 132.686 48.5478 132.234 49.2124C131.782 49.8769 131.557 50.8303 131.558 52.0725Z" fill="black"/>
  <path d="M148.205 46.2607C148.604 46.2534 149.004 46.288 149.396 46.3639L149.163 48.5912C148.816 48.5087 148.46 48.4675 148.104 48.4686C147.672 48.4522 147.242 48.5271 146.841 48.6885C146.441 48.8499 146.079 49.0941 145.779 49.4051C145.186 50.0307 144.889 50.8413 144.889 51.8368V57.7186H142.49V46.4652H144.363L144.679 48.4491H144.802C145.149 47.8043 145.651 47.2552 146.262 46.8507C146.836 46.4645 147.513 46.2591 148.205 46.2607Z" fill="black"/>
  <path d="M153.793 51.7763L155.156 50.0863L158.553 46.465H161.312L156.783 51.2973L161.596 57.7223H158.779L155.165 52.7829L153.853 53.8615V57.7184H151.482V41.8857H153.853V49.6093L153.73 51.7763H153.793Z" fill="black"/>
  <path d="M69.104 60.7167C68.7941 60.7167 68.497 60.5937 68.2779 60.3746C68.0589 60.1555 67.9358 59.8584 67.9358 59.5486V4.83907C67.9358 4.52925 68.0589 4.23212 68.2779 4.01305C68.497 3.79397 68.7941 3.6709 69.104 3.6709C69.4138 3.6709 69.7109 3.79397 69.93 4.01305C70.1491 4.23212 70.2721 4.52925 70.2721 4.83907V59.5486C70.2721 59.8584 70.1491 60.1555 69.93 60.3746C69.7109 60.5937 69.4138 60.7167 69.104 60.7167Z" fill="black"/>
</svg>